# xmcd
#
# Track frame offsets:
#	150
#	15143
#	33678
#	45453
#	61793
#	83178
#	98165
#	113808
#	130658
#	147463
#
# Disc length: 2282 seconds
#
# Revision: 2
# Processed by: cddbd v1.5.1PL0 Copyright (c) Steve Scherf et al.
# Submitted via: MusicWizard 7.0.2
#
DISCID=7808e80a
DTITLE=Emmylou Harris - Pieces Of The Sky
DYEAR=1975
DGENRE=Country
TTITLE0=Bluebird Wine
TTITLE1=Too Far Gone
TTITLE2=If I Could Only Win Your Love
TTITLE3=Boulder To Birmingham
TTITLE4=Before Believing
TTITLE5=Bottle Let Me Down
TTITLE6=Sleepless Nights
TTITLE7=Coat Of Many Colors
TTITLE8=For No One
TTITLE9=Queen Of The Silver Dollar
EXTD=(c)1975 Reprise Records, A Warner Communications Company\n\nOrignally released in 1975 on Rep
EXTD=rise Records as MS2213\nProduced by Brian Ahern for Happy Sack Productions at The Enactron Tr
EXTD=uck\nupc 075992724425 \nReprise 2284-2\n
EXTT0=Fayssoux Starling and Herb Pederson Background Vocals
EXTT1=Fayssoux Starling and Herb Pederson Background Vocals
EXTT2=Herb Pedersen and Emmylou Harris Harmony
EXTT3=Herb Pedersen and Emmylou Harris Background Vocals
EXTT4=
EXTT5=Bernie Leadon and Herb Pedersen Background Vocals
EXTT6=
EXTT7=Fayssoux Starling and Emmylou Harris Background Vocals (For Avis)
EXTT8=Fayssoux Starling and Herb Pedersen Background Vocals
EXTT9=Herb Pedersen and Linda Ronstadt (courtesy Asylum Records)
PLAYORDER=
